<svg xmlns="http://www.w3.org/2000/svg" viewBox="0 0 800 1200"><defs><linearGradient id="g" x1="0" y1="0" x2="1" y2="1"><stop stop-color="#140a26"/><stop offset=".5" stop-color="#563a9d"/><stop offset="1" stop-color="#07101d"/></linearGradient><radialGradient id="r"><stop stop-color="#d0a6ff" stop-opacity=".95"/><stop offset="1" stop-color="#8a5cff" stop-opacity="0"/></radialGradient></defs><rect width="800" height="1200" fill="url(#g)"/><circle cx="560" cy="250" r="290" fill="url(#r)"/><path d="M320 180 L480 180 535 340 490 500 310 500 265 340Z" fill="#13172d" stroke="#c8a5ff" stroke-width="8"/><path d="M330 300 L470 300 450 380 350 380Z" fill="#c6a0ff"/><path d="M280 500 L520 500 610 1170 190 1170Z" fill="#151b31"/><path d="M280 535 L120 720 210 820 330 600Z" fill="#0c1323"/><path d="M520 535 L680 720 590 820 470 600Z" fill="#0c1323"/><circle cx="145" cy="660" r="70" fill="url(#r)"/><circle cx="655" cy="660" r="70" fill="url(#r)"/><g stroke="#d6b8ff" fill="none" opacity=".4"><circle cx="400" cy="610" r="220"/><path d="M110 610 H690"/><path d="M400 320 V940"/></g></svg>